<svg width="331" height="372" viewBox="0 0 331 372" fill="none" xmlns="http://www.w3.org/2000/svg">
<path fill-rule="evenodd" clip-rule="evenodd" d="M37 235.23H0.663696V349.237L14.2169 362.791H42.3394L111.13 294H37V235.23Z" fill="white"/>
<path fill-rule="evenodd" clip-rule="evenodd" d="M258.241 108L258.241 107.934H230.671V72.0576H292.189C292.869 72.0194 293.554 72 294.243 72C314.127 72 330.246 88.1177 330.246 108H330.246V142.743C330.216 123.55 314.108 108 294.243 108H258.241Z" fill="white"/>
<rect x="138.19" y="67.0103" width="51.8213" height="113.21" fill="white"/>
<path fill-rule="evenodd" clip-rule="evenodd" d="M138.19 134.378V116.838C157.47 119.712 175.15 126.682 190.011 136.686V154.226C175.15 144.221 157.47 137.251 138.19 134.378Z" fill="#EDCBD9"/>
<circle cx="23.784" cy="348.839" r="23.1203" fill="white"/>
<path fill-rule="evenodd" clip-rule="evenodd" d="M118.258 338.076C183.204 338.076 235.853 292.119 235.853 235.43C235.853 178.74 183.204 132.783 118.258 132.783C53.3126 132.783 0.663696 178.74 0.663696 235.43C0.663696 292.119 53.3126 338.076 118.258 338.076ZM190.938 200.7C190.938 194.453 185.873 189.388 179.626 189.388H56.9838C50.7366 189.388 45.6721 194.453 45.6721 200.7C45.6721 206.947 50.7365 212.012 56.9838 212.012L179.626 212.012C185.873 212.012 190.938 206.947 190.938 200.7ZM122.472 223.919C128.72 223.919 133.784 228.983 133.784 235.23C133.784 241.478 128.72 246.542 122.472 246.542H56.9838C50.7366 246.542 45.6722 241.478 45.6722 235.23C45.6722 228.983 50.7366 223.919 56.9838 223.919H122.472ZM155.217 269.761C155.217 263.513 150.152 258.449 143.905 258.449H56.9838C50.7365 258.449 45.6721 263.513 45.6721 269.761C45.6721 276.008 50.7365 281.072 56.9838 281.072H143.905C150.152 281.072 155.217 276.008 155.217 269.761Z" fill="white"/>
<path fill-rule="evenodd" clip-rule="evenodd" d="M205.055 133.773C241.984 133.773 271.921 103.836 271.921 66.907C271.921 29.978 241.984 0.0411377 205.055 0.0411377C168.126 0.0411377 138.19 29.978 138.19 66.907C138.19 103.836 168.126 133.773 205.055 133.773ZM224.492 66.6117C230.766 66.6117 235.853 61.5253 235.853 55.2508C235.853 48.9764 230.766 43.89 224.492 43.89C218.218 43.89 213.131 48.9764 213.131 55.2508C213.131 61.5253 218.218 66.6117 224.492 66.6117Z" fill="white"/>
</svg>
